<?xml version="1.0" encoding="UTF-8"?>

<svg version="1.2" baseProfile="tiny" width="99.05mm" height="45.45mm" viewBox="1000 1000 9905 4545" preserveAspectRatio="xMidYMid" fill-rule="evenodd" stroke-width="28.222" stroke-linejoin="round" xmlns="http://www.w3.org/2000/svg" xmlns:xlink="http://www.w3.org/1999/xlink" xml:space="preserve">
 <g visibility="visible" id="Slide_1">
  <g id="DrawingGroup_1">
   <g id="DrawingGroup_2">
    <g id="DrawingGroup_3">
     <g>
      <path fill="rgb(114,137,218)" stroke="none" d="M 6402,3749 L 4606,5545 3708,4647 7300,1055 8198,1953 6402,3749 Z"/>
      <rect fill="none" stroke="none" x="3708" y="1054" width="4492" height="4493"/>
     </g>
     <g>
      <path fill="rgb(114,137,218)" stroke="none" d="M 9109,2811 L 10905,4607 10007,5505 6415,1913 7313,1015 9109,2811 Z"/>
      <rect fill="none" stroke="none" x="6414" y="1014" width="4493" height="4492"/>
     </g>
    </g>
    <g id="DrawingGroup_4">
     <g>
      <path fill="rgb(114,137,218)" stroke="none" d="M 5504,2796 L 7300,1000 8198,1898 4606,5490 3708,4592 5504,2796 Z"/>
      <rect fill="none" stroke="none" x="3707" y="999" width="4492" height="4493"/>
     </g>
     <g>
      <path fill="rgb(114,137,218)" stroke="none" d="M 2796,3736 L 1000,1940 1898,1042 5490,4634 4592,5532 2796,3736 Z"/>
      <rect fill="none" stroke="none" x="999" y="1042" width="4493" height="4492"/>
     </g>
    </g>
   </g>
   <g id="DrawingGroup_5">
    <g id="DrawingGroup_6">
     <g>
      <path fill="rgb(218,161,114)" stroke="none" d="M 6388,2796 L 8184,4592 7286,5490 3694,1898 4592,1000 6388,2796 Z"/>
      <rect fill="none" stroke="none" x="3693" y="999" width="4493" height="4492"/>
     </g>
     <g>
      <path fill="rgb(218,161,114)" stroke="none" d="M 3694,3694 L 1898,5490 1000,4592 4592,1000 5490,1898 3694,3694 Z"/>
      <rect fill="none" stroke="none" x="1000" y="999" width="4492" height="4493"/>
     </g>
    </g>
    <g id="DrawingGroup_7">
     <g>
      <path fill="rgb(218,161,114)" stroke="none" d="M 5490,3694 L 3694,1898 4592,1000 8184,4592 7286,5490 5490,3694 Z"/>
      <rect fill="none" stroke="none" x="3693" y="1000" width="4493" height="4492"/>
     </g>
     <g>
      <path fill="rgb(218,161,114)" stroke="none" d="M 8184,2796 L 9980,1000 10878,1898 7286,5490 6388,4592 8184,2796 Z"/>
      <rect fill="none" stroke="none" x="6387" y="999" width="4492" height="4493"/>
     </g>
    </g>
   </g>
  </g>
 </g>
</svg>